<mxfile host="app.diagrams.net" modified="2024-07-15T07:10:43.682Z" agent="Mozilla/5.0 (Macintosh; Intel Mac OS X 10_15_7) AppleWebKit/605.1.15 (KHTML, like Gecko) Version/17.5 Safari/605.1.15" etag="dGq46Hj5pWN6qswcYEEe" version="24.6.5" type="github">
  <diagram name="Page-1" id="2YBvvXClWsGukQMizWep">
    <mxGraphModel dx="1809" dy="841" grid="1" gridSize="10" guides="1" tooltips="1" connect="1" arrows="1" fold="1" page="1" pageScale="1" pageWidth="850" pageHeight="1100" math="0" shadow="0">
      <root>
        <mxCell id="0" />
        <mxCell id="1" parent="0" />
        <mxCell id="aM9ryv3xv72pqoxQDRHE-1" value=":UI" style="shape=umlLifeline;perimeter=lifelinePerimeter;whiteSpace=wrap;html=1;container=0;dropTarget=0;collapsible=0;recursiveResize=0;outlineConnect=0;portConstraint=eastwest;newEdgeStyle={&quot;edgeStyle&quot;:&quot;elbowEdgeStyle&quot;,&quot;elbow&quot;:&quot;vertical&quot;,&quot;curved&quot;:0,&quot;rounded&quot;:0};" parent="1" vertex="1">
          <mxGeometry x="45" y="70" width="100" height="300" as="geometry" />
        </mxCell>
        <mxCell id="aM9ryv3xv72pqoxQDRHE-2" value="" style="html=1;points=[];perimeter=orthogonalPerimeter;outlineConnect=0;targetShapes=umlLifeline;portConstraint=eastwest;newEdgeStyle={&quot;edgeStyle&quot;:&quot;elbowEdgeStyle&quot;,&quot;elbow&quot;:&quot;vertical&quot;,&quot;curved&quot;:0,&quot;rounded&quot;:0};" parent="aM9ryv3xv72pqoxQDRHE-1" vertex="1">
          <mxGeometry x="45" y="70" width="10" height="190" as="geometry" />
        </mxCell>
        <mxCell id="aM9ryv3xv72pqoxQDRHE-5" value=":Reactive Class" style="shape=umlLifeline;perimeter=lifelinePerimeter;whiteSpace=wrap;html=1;container=0;dropTarget=0;collapsible=0;recursiveResize=0;outlineConnect=0;portConstraint=eastwest;newEdgeStyle={&quot;edgeStyle&quot;:&quot;elbowEdgeStyle&quot;,&quot;elbow&quot;:&quot;vertical&quot;,&quot;curved&quot;:0,&quot;rounded&quot;:0};" parent="1" vertex="1">
          <mxGeometry x="225" y="70" width="100" height="300" as="geometry" />
        </mxCell>
        <mxCell id="aM9ryv3xv72pqoxQDRHE-6" value="" style="html=1;points=[];perimeter=orthogonalPerimeter;outlineConnect=0;targetShapes=umlLifeline;portConstraint=eastwest;newEdgeStyle={&quot;edgeStyle&quot;:&quot;elbowEdgeStyle&quot;,&quot;elbow&quot;:&quot;vertical&quot;,&quot;curved&quot;:0,&quot;rounded&quot;:0};" parent="aM9ryv3xv72pqoxQDRHE-5" vertex="1">
          <mxGeometry x="45" y="80" width="10" height="170" as="geometry" />
        </mxCell>
        <mxCell id="aM9ryv3xv72pqoxQDRHE-7" value="event" style="html=1;verticalAlign=bottom;endArrow=block;edgeStyle=elbowEdgeStyle;elbow=vertical;curved=0;rounded=0;endFill=1;" parent="1" source="aM9ryv3xv72pqoxQDRHE-2" target="aM9ryv3xv72pqoxQDRHE-6" edge="1">
          <mxGeometry relative="1" as="geometry">
            <mxPoint x="200" y="160" as="sourcePoint" />
            <Array as="points">
              <mxPoint x="185" y="150" />
            </Array>
          </mxGeometry>
        </mxCell>
        <mxCell id="8wNjr40v_0VzVFgqWnhP-1" value=":UseCase" style="shape=umlLifeline;perimeter=lifelinePerimeter;whiteSpace=wrap;html=1;container=0;dropTarget=0;collapsible=0;recursiveResize=0;outlineConnect=0;portConstraint=eastwest;newEdgeStyle={&quot;edgeStyle&quot;:&quot;elbowEdgeStyle&quot;,&quot;elbow&quot;:&quot;vertical&quot;,&quot;curved&quot;:0,&quot;rounded&quot;:0};" parent="1" vertex="1">
          <mxGeometry x="385" y="70" width="100" height="300" as="geometry" />
        </mxCell>
        <mxCell id="8wNjr40v_0VzVFgqWnhP-2" value="" style="html=1;points=[];perimeter=orthogonalPerimeter;outlineConnect=0;targetShapes=umlLifeline;portConstraint=eastwest;newEdgeStyle={&quot;edgeStyle&quot;:&quot;elbowEdgeStyle&quot;,&quot;elbow&quot;:&quot;vertical&quot;,&quot;curved&quot;:0,&quot;rounded&quot;:0};" parent="8wNjr40v_0VzVFgqWnhP-1" vertex="1">
          <mxGeometry x="45" y="80" width="10" height="170" as="geometry" />
        </mxCell>
        <mxCell id="8wNjr40v_0VzVFgqWnhP-3" value=":Repository" style="shape=umlLifeline;perimeter=lifelinePerimeter;whiteSpace=wrap;html=1;container=0;dropTarget=0;collapsible=0;recursiveResize=0;outlineConnect=0;portConstraint=eastwest;newEdgeStyle={&quot;edgeStyle&quot;:&quot;elbowEdgeStyle&quot;,&quot;elbow&quot;:&quot;vertical&quot;,&quot;curved&quot;:0,&quot;rounded&quot;:0};" parent="1" vertex="1">
          <mxGeometry x="545" y="70" width="100" height="300" as="geometry" />
        </mxCell>
        <mxCell id="8wNjr40v_0VzVFgqWnhP-4" value="" style="html=1;points=[];perimeter=orthogonalPerimeter;outlineConnect=0;targetShapes=umlLifeline;portConstraint=eastwest;newEdgeStyle={&quot;edgeStyle&quot;:&quot;elbowEdgeStyle&quot;,&quot;elbow&quot;:&quot;vertical&quot;,&quot;curved&quot;:0,&quot;rounded&quot;:0};" parent="8wNjr40v_0VzVFgqWnhP-3" vertex="1">
          <mxGeometry x="45" y="80" width="10" height="210" as="geometry" />
        </mxCell>
        <mxCell id="8wNjr40v_0VzVFgqWnhP-14" value="" style="html=1;points=[[0,0,0,0,5],[0,1,0,0,-5],[1,0,0,0,5],[1,1,0,0,-5]];perimeter=orthogonalPerimeter;outlineConnect=0;targetShapes=umlLifeline;portConstraint=eastwest;newEdgeStyle={&quot;curved&quot;:0,&quot;rounded&quot;:0};" parent="8wNjr40v_0VzVFgqWnhP-3" vertex="1">
          <mxGeometry x="50" y="200" width="10" height="40" as="geometry" />
        </mxCell>
        <mxCell id="8wNjr40v_0VzVFgqWnhP-15" value="process local data&amp;nbsp;&lt;div&gt;&amp;amp; remote data&lt;/div&gt;" style="html=1;align=left;spacingLeft=2;endArrow=block;rounded=0;edgeStyle=orthogonalEdgeStyle;curved=0;rounded=0;" parent="8wNjr40v_0VzVFgqWnhP-3" target="8wNjr40v_0VzVFgqWnhP-14" edge="1">
          <mxGeometry relative="1" as="geometry">
            <mxPoint x="55" y="190" as="sourcePoint" />
            <Array as="points">
              <mxPoint x="85" y="220" />
            </Array>
          </mxGeometry>
        </mxCell>
        <mxCell id="8wNjr40v_0VzVFgqWnhP-5" value=":Datasource" style="shape=umlLifeline;perimeter=lifelinePerimeter;whiteSpace=wrap;html=1;container=0;dropTarget=0;collapsible=0;recursiveResize=0;outlineConnect=0;portConstraint=eastwest;newEdgeStyle={&quot;edgeStyle&quot;:&quot;elbowEdgeStyle&quot;,&quot;elbow&quot;:&quot;vertical&quot;,&quot;curved&quot;:0,&quot;rounded&quot;:0};" parent="1" vertex="1">
          <mxGeometry x="705" y="70" width="100" height="300" as="geometry" />
        </mxCell>
        <mxCell id="8wNjr40v_0VzVFgqWnhP-6" value="" style="html=1;points=[];perimeter=orthogonalPerimeter;outlineConnect=0;targetShapes=umlLifeline;portConstraint=eastwest;newEdgeStyle={&quot;edgeStyle&quot;:&quot;elbowEdgeStyle&quot;,&quot;elbow&quot;:&quot;vertical&quot;,&quot;curved&quot;:0,&quot;rounded&quot;:0};" parent="8wNjr40v_0VzVFgqWnhP-5" vertex="1">
          <mxGeometry x="45" y="80" width="10" height="170" as="geometry" />
        </mxCell>
        <mxCell id="8wNjr40v_0VzVFgqWnhP-7" value="request" style="html=1;verticalAlign=bottom;endArrow=block;edgeStyle=elbowEdgeStyle;elbow=vertical;curved=0;rounded=0;" parent="1" target="8wNjr40v_0VzVFgqWnhP-2" edge="1">
          <mxGeometry x="-0.0033" relative="1" as="geometry">
            <mxPoint x="275" y="150" as="sourcePoint" />
            <Array as="points">
              <mxPoint x="360" y="150" />
            </Array>
            <mxPoint x="435" y="150" as="targetPoint" />
            <mxPoint as="offset" />
          </mxGeometry>
        </mxCell>
        <mxCell id="8wNjr40v_0VzVFgqWnhP-8" value="request" style="html=1;verticalAlign=bottom;endArrow=block;edgeStyle=elbowEdgeStyle;elbow=vertical;curved=0;rounded=0;" parent="1" edge="1">
          <mxGeometry relative="1" as="geometry">
            <mxPoint x="435" y="150" as="sourcePoint" />
            <Array as="points">
              <mxPoint x="520" y="150" />
            </Array>
            <mxPoint x="590" y="150" as="targetPoint" />
          </mxGeometry>
        </mxCell>
        <mxCell id="8wNjr40v_0VzVFgqWnhP-9" value="request local data" style="html=1;verticalAlign=bottom;endArrow=block;edgeStyle=elbowEdgeStyle;elbow=vertical;curved=0;rounded=0;" parent="1" edge="1">
          <mxGeometry relative="1" as="geometry">
            <mxPoint x="595" y="150" as="sourcePoint" />
            <Array as="points">
              <mxPoint x="680" y="150" />
            </Array>
            <mxPoint x="750" y="150" as="targetPoint" />
          </mxGeometry>
        </mxCell>
        <mxCell id="8wNjr40v_0VzVFgqWnhP-11" value="return local data" style="html=1;verticalAlign=bottom;endArrow=open;dashed=1;endSize=8;edgeStyle=elbowEdgeStyle;elbow=vertical;curved=0;rounded=0;" parent="1" edge="1">
          <mxGeometry relative="1" as="geometry">
            <mxPoint x="600" y="180" as="targetPoint" />
            <Array as="points">
              <mxPoint x="700" y="180" />
            </Array>
            <mxPoint x="750" y="180" as="sourcePoint" />
          </mxGeometry>
        </mxCell>
        <mxCell id="8wNjr40v_0VzVFgqWnhP-12" value="request remote data" style="html=1;verticalAlign=bottom;endArrow=block;endSize=8;edgeStyle=elbowEdgeStyle;elbow=vertical;curved=0;rounded=0;endFill=1;" parent="1" edge="1">
          <mxGeometry x="0.0032" relative="1" as="geometry">
            <mxPoint x="750" y="210" as="targetPoint" />
            <Array as="points">
              <mxPoint x="685" y="210" />
            </Array>
            <mxPoint x="600" y="210" as="sourcePoint" />
            <mxPoint as="offset" />
          </mxGeometry>
        </mxCell>
        <mxCell id="8wNjr40v_0VzVFgqWnhP-13" value="return remote data" style="html=1;verticalAlign=bottom;endArrow=open;dashed=1;endSize=8;edgeStyle=elbowEdgeStyle;elbow=vertical;curved=0;rounded=0;" parent="1" source="8wNjr40v_0VzVFgqWnhP-6" target="8wNjr40v_0VzVFgqWnhP-4" edge="1">
          <mxGeometry relative="1" as="geometry">
            <mxPoint x="595" y="240" as="targetPoint" />
            <Array as="points">
              <mxPoint x="695" y="240" />
            </Array>
            <mxPoint x="745" y="240" as="sourcePoint" />
          </mxGeometry>
        </mxCell>
        <mxCell id="8wNjr40v_0VzVFgqWnhP-16" value="return data model" style="html=1;verticalAlign=bottom;endArrow=open;dashed=1;endSize=8;edgeStyle=elbowEdgeStyle;elbow=vertical;curved=0;rounded=0;" parent="1" source="8wNjr40v_0VzVFgqWnhP-4" target="8wNjr40v_0VzVFgqWnhP-2" edge="1">
          <mxGeometry relative="1" as="geometry">
            <mxPoint x="415" y="300" as="targetPoint" />
            <Array as="points">
              <mxPoint x="510" y="300" />
            </Array>
            <mxPoint x="585" y="300" as="sourcePoint" />
          </mxGeometry>
        </mxCell>
        <mxCell id="8wNjr40v_0VzVFgqWnhP-17" value="return data model" style="html=1;verticalAlign=bottom;endArrow=open;dashed=1;endSize=8;edgeStyle=elbowEdgeStyle;elbow=vertical;curved=0;rounded=0;" parent="1" source="8wNjr40v_0VzVFgqWnhP-2" target="aM9ryv3xv72pqoxQDRHE-6" edge="1">
          <mxGeometry relative="1" as="geometry">
            <mxPoint x="275" y="300" as="targetPoint" />
            <Array as="points">
              <mxPoint x="345" y="300" />
            </Array>
            <mxPoint x="425" y="300" as="sourcePoint" />
          </mxGeometry>
        </mxCell>
        <mxCell id="8wNjr40v_0VzVFgqWnhP-19" value="return data model" style="html=1;verticalAlign=bottom;endArrow=open;dashed=1;endSize=8;edgeStyle=elbowEdgeStyle;elbow=vertical;curved=0;rounded=0;" parent="1" source="aM9ryv3xv72pqoxQDRHE-6" target="aM9ryv3xv72pqoxQDRHE-2" edge="1">
          <mxGeometry relative="1" as="geometry">
            <mxPoint x="110" y="300" as="targetPoint" />
            <Array as="points">
              <mxPoint x="175" y="300" />
            </Array>
            <mxPoint x="260" y="300" as="sourcePoint" />
          </mxGeometry>
        </mxCell>
      </root>
    </mxGraphModel>
  </diagram>
</mxfile>
